<svg
   viewBox="0 -256 1950 1950"
   id="svg3013"
   version="1.1"
   width="100%"
   height="100%" >
  <g
     transform="matrix(1,0,0,-1,60.745763,1405.4576)"
     id="g3015">
    <path
       d="m 1879,584 q 0,-31 -31,-66 L 1512,122 Q 1469,71 1391.5,35.5 1314,0 1248,0 H 160 Q 126,0 99.5,13 73,26 73,56 q 0,31 31,66 l 336,396 q 43,51 120.5,86.5 Q 638,640 704,640 h 1088 q 34,0 60.5,-13 26.5,-13 26.5,-43 z M 1536,928 V 768 H 704 Q 610,768 507,720.5 404,673 343,601 L 6,205 1,199 Q 1,203 0.5,211.5 0,220 0,224 v 960 q 0,92 66,158 66,66 158,66 h 320 q 92,0 158,-66 66,-66 66,-158 v -32 h 544 q 92,0 158,-66 66,-66 66,-158 z"
       id="path3017"
       fill="white"/>
  </g>
</svg>
